<?xml version="1.0" standalone="no"?>
<!DOCTYPE svg PUBLIC "-//W3C//DTD SVG 20010904//EN"
 "http://www.w3.org/TR/2001/REC-SVG-20010904/DTD/svg10.dtd">
<svg version="1.0" xmlns="http://www.w3.org/2000/svg"
 width="512.000000pt" height="512.000000pt" viewBox="0 0 512.000000 512.000000"
 preserveAspectRatio="xMidYMid meet">
<metadata>
Created by potrace 1.14, written by Peter Selinger 2001-2017
</metadata>
<g transform="translate(0.000000,512.000000) scale(0.100000,-0.100000)"
fill="#000000" stroke="none">
<path d="M2393 5110 c-656 -75 -1203 -527 -1417 -1170 -67 -201 -78 -276 -83
-566 l-5 -261 -48 -6 c-92 -11 -170 -70 -209 -157 -20 -45 -21 -59 -21 -1395
l0 -1350 24 -50 c25 -55 79 -108 135 -134 33 -15 192 -16 1791 -16 1599 0
1758 1 1791 16 56 26 110 79 135 134 l24 50 0 1350 c0 1336 -1 1350 -21 1395
-39 87 -117 146 -209 157 l-48 6 -5 261 c-4 218 -8 278 -26 361 -155 712 -688
1241 -1371 1359 -112 20 -336 28 -437 16z m432 -665 c284 -84 508 -271 647
-540 94 -183 128 -348 128 -622 l0 -173 -1040 0 -1040 0 0 173 c0 98 6 213 14
267 63 416 336 753 712 879 130 44 180 50 344 47 121 -3 160 -8 235 -31z m517
-2253 c148 -150 162 -171 145 -223 -4 -15 -242 -257 -552 -563 -450 -443 -549
-536 -572 -536 -22 0 -85 58 -355 327 -180 180 -331 335 -334 345 -9 29 17 63
160 208 114 115 145 140 168 140 23 0 60 -30 194 -157 91 -87 169 -159 173
-161 5 -1 179 171 388 383 324 327 385 385 409 385 24 0 55 -26 176 -148z"/>
</g>
</svg>
